<?xml version="1.0" encoding="iso-8859-1"?>
<!-- Generator: Adobe Illustrator 19.0.0, SVG Export Plug-In . SVG Version: 6.00 Build 0)  -->
<svg version="1.1" id="Capa_1" xmlns="http://www.w3.org/2000/svg" xmlns:xlink="http://www.w3.org/1999/xlink" x="0px" y="0px"
	 viewBox="0 0 480 480" style="enable-background:new 0 0 480 480;" xml:space="preserve">
<g>
	<g>
		<path d="M88.004,360c-0.001,0-0.003,0-0.004,0H24c-4.417-0.001-7.999,3.579-8,7.996c0,0.001,0,0.003,0,0.004v104
			c-0.001,4.417,3.579,7.999,7.996,8c0.001,0,0.003,0,0.004,0h64c4.417,0.001,7.999-3.579,8-7.996c0-0.001,0-0.003,0-0.004V368
			C96.001,363.583,92.421,360.001,88.004,360z M80,464H32v-88h48V464z"/>
	</g>
</g>
<g>
	<g>
		<path d="M200.004,320c-0.001,0-0.003,0-0.004,0h-64c-4.417-0.001-7.999,3.579-8,7.996c0,0.001,0,0.003,0,0.004v144
			c-0.001,4.417,3.579,7.999,7.996,8c0.001,0,0.003,0,0.004,0h64c4.417,0.001,7.999-3.579,8-7.996c0-0.001,0-0.003,0-0.004V328
			C208.001,323.583,204.421,320.001,200.004,320z M192,464h-48V336h48V464z"/>
	</g>
</g>
<g>
	<g>
		<path d="M312.004,272c-0.001,0-0.003,0-0.004,0h-64c-4.417-0.001-7.999,3.579-8,7.996c0,0.001,0,0.003,0,0.004v192
			c-0.001,4.417,3.579,7.999,7.996,8c0.001,0,0.003,0,0.004,0h64c4.417,0.001,7.999-3.579,8-7.996c0-0.001,0-0.003,0-0.004V280
			C320.001,275.583,316.421,272.001,312.004,272z M304,464h-48V288h48V464z"/>
	</g>
</g>
<g>
	<g>
		<path d="M424.004,208c-0.001,0-0.003,0-0.004,0h-64c-4.417-0.001-7.999,3.579-8,7.996c0,0.001,0,0.003,0,0.004v256
			c-0.001,4.417,3.579,7.999,7.996,8c0.001,0,0.003,0,0.004,0h64c4.417,0.001,7.999-3.579,8-7.996c0-0.001,0-0.003,0-0.004V216
			C432.001,211.583,428.421,208.001,424.004,208z M416,464h-48V224h48V464z"/>
	</g>
</g>
<g>
	<g>
		<path d="M392,32c-30.928,0-56,25.072-56,56c0.036,30.913,25.087,55.964,56,56c30.928,0,56-25.072,56-56
			C448,57.072,422.928,32,392,32z M392.009,107.435c-3.154,0.005-5.715-2.548-5.72-5.702c0-0.006,0-0.012,0-0.018h-16
			c0.018,8.887,5.45,16.866,13.711,20.143v5.334c-21.645-4.418-35.61-25.546-31.192-47.191
			c3.206-15.709,15.483-27.986,31.192-31.192v5.334c-8.261,3.276-13.693,11.255-13.711,20.143c0,15.313,12.094,19.086,19.32,21.336
			c7.828,2.441,8.102,3.152,8.102,6.094C397.716,104.869,395.163,107.43,392.009,107.435z M400,127.191v-5.333
			c8.261-3.276,13.693-11.256,13.711-20.143c0-15.336-12.102-19.109-19.336-21.367c-7.813-2.434-8.086-3.141-8.086-6.063
			c-0.005-3.154,2.548-5.715,5.702-5.72c3.154-0.005,5.715,2.548,5.72,5.702c0,0.006,0,0.012,0,0.018h16
			c-0.018-8.887-5.45-16.867-13.711-20.143v-5.334c18.609,3.825,31.974,20.193,32,39.191
			C431.974,106.998,418.609,123.366,400,127.191z"/>
	</g>
</g>
<g>
	<g>
		<path d="M308.219,60.984C305.415,69.715,303.992,78.83,304,88v0.156L320,88c-0.008-7.505,1.157-14.964,3.453-22.109
			L308.219,60.984z"/>
	</g>
</g>
<g>
	<g>
		<path d="M463.016,36.02l-12.907,9.461c4.472,6.084,7.95,12.838,10.305,20.012l15.203-4.992
			C472.735,51.726,468.482,43.464,463.016,36.02z"/>
	</g>
</g>
<g>
	<g>
		<path d="M450.273,130.301c-4.443,6.111-9.815,11.488-15.921,15.938l9.421,12.93c7.457-5.43,14.016-11.997,19.438-19.461
			L450.273,130.301z"/>
	</g>
</g>
<g>
	<g>
		<path d="M464,88c0.006,7.554-1.175,15.062-3.5,22.25l15.219,4.93c2.845-8.779,4.29-17.951,4.281-27.18v-0.316L464,88z"/>
	</g>
</g>
<g>
	<g>
		<path d="M349.758,146.312l-9.391,12.953c7.471,5.427,15.753,9.639,24.539,12.481l4.922-15.227
			C362.642,154.196,355.869,150.751,349.758,146.312z"/>
	</g>
</g>
<g>
	<g>
		<path d="M340.086,16.938c-7.444,5.445-13.989,12.022-19.398,19.492l12.953,9.391c4.433-6.123,9.797-11.514,15.898-15.977
			L340.086,16.938z"/>
	</g>
</g>
<g>
	<g>
		<path d="M418.938,4.199l-4.891,15.234c7.187,2.308,13.964,5.74,20.078,10.168l9.375-12.969
			C436.02,11.218,427.73,7.021,418.938,4.199z"/>
	</g>
</g>
<g>
	<g>
		<path d="M414.305,156.477c-7.184,2.333-14.689,3.522-22.242,3.523l0.016,16c9.229-0.003,18.401-1.456,27.18-4.305L414.305,156.477
			z"/>
	</g>
</g>
<g>
	<g>
		<path d="M391.742,0.004c-9.23,0.016-18.4,1.488-27.172,4.359l4.984,15.203c7.178-2.349,14.682-3.551,22.235-3.563L391.742,0.004z"
			/>
	</g>
</g>
<g>
	<g>
		<path d="M323.539,110.375l-15.203,4.969c2.864,8.777,7.099,17.046,12.547,24.5l12.922-9.438
			C329.346,124.313,325.882,117.552,323.539,110.375z"/>
	</g>
</g>
<g>
	<g>
		<path d="M264,144c-22.091,0-40,17.909-40,40c0.045,6.745,1.818,13.366,5.147,19.232l-50.881,26.558
			c-14.436-10.127-34.348-6.634-44.476,7.801c-3.783,5.392-5.805,11.822-5.791,18.408c0,0.996,0.205,1.935,0.294,2.908
			l-50.608,25.304C72.861,272.033,61.1,264.025,48,264c-17.673-0.055-32.045,14.227-32.1,31.9s14.227,32.045,31.9,32.1
			c15.701,0.049,29.118-11.3,31.673-26.791l54.192-27.096c9.987,14.561,29.887,18.268,44.448,8.281
			C186.814,276.426,192.01,266.55,192,256c-0.025-4.735-1.112-9.405-3.181-13.664l51.052-26.647
			c6.906,5.357,15.39,8.279,24.129,8.311c22.091,0,40-17.909,40-40S286.091,144,264,144z M48,312c-8.837,0-16-7.163-16-16
			s7.163-16,16-16s16,7.163,16,16C63.99,304.832,56.832,311.99,48,312z M160,272c-8.837,0-16-7.163-16-16
			c0.01-8.832,7.168-15.99,16-16c8.837,0,16,7.163,16,16C176,264.837,168.837,272,160,272z M264,208c-13.255,0-24-10.745-24-24
			c0.014-13.249,10.751-23.986,24-24c13.255,0,24,10.745,24,24S277.255,208,264,208z"/>
	</g>
</g>
<g>
	<g>
		<polygon points="40,24 40,0 24,0 24,24 0,24 0,40 24,40 24,64 40,64 40,40 64,40 64,24 		"/>
	</g>
</g>
<g>
	<g>
		<polygon points="120,24 120,0 104,0 104,24 80,24 80,40 104,40 104,64 120,64 120,40 144,40 144,24 		"/>
	</g>
</g>
<g>
</g>
<g>
</g>
<g>
</g>
<g>
</g>
<g>
</g>
<g>
</g>
<g>
</g>
<g>
</g>
<g>
</g>
<g>
</g>
<g>
</g>
<g>
</g>
<g>
</g>
<g>
</g>
<g>
</g>
</svg>
